<svg xmlns="http://www.w3.org/2000/svg" width="272" height="104" viewBox="0 0 272 104">
  <g id="Group_147" data-name="Group 147" transform="translate(-1076 -6221)">
    <rect id="Rectangle_1151" data-name="Rectangle 1151" width="272" height="104" transform="translate(1076 6221)" fill="#fff" opacity="0"/>
    <g id="Layer_2" data-name="Layer 2" transform="translate(1119.507 6231.539)" style="isolation: isolate">
      <g id="Layer_1-2" data-name="Layer 1-2" style="isolation: isolate">
        <path id="Path_45" data-name="Path 45" d="M16.473,29.927h12.52c6.721,0,9.252,3.4,8.861,8.41-.644,8.254-5.635,12.82-12.254,12.82H22.258c-.907,0-1.517.6-1.765,2.229L19.06,62.849c-.094.614-.417.977-.9,1.019H10.31c-.739,0-1-.565-.808-1.789L14.3,31.725a1.914,1.914,0,0,1,2.177-1.8Z" fill="#009ee3" fill-rule="evenodd"/>
        <path id="Path_46" data-name="Path 46" d="M70.822,29.366c4.225,0,8.12,2.29,7.588,8-.631,6.771-4.282,10.543-10.021,10.558H63.383c-.722,0-1.069.587-1.258,1.795l-.967,6.162c-.146.931-.623,1.389-1.328,1.389H55.165c-.743,0-1-.476-.837-1.538l3.853-24.7c.19-1.214.655-1.666,1.478-1.666Zm-7.6,13.223h3.8c2.374-.089,3.953-1.734,4.112-4.7a2.868,2.868,0,0,0-3.109-3.134l-3.576.017Zm27.861,12.79c.427-.387.86-.589.8-.111l-.151,1.145c-.079.6.158.915.715.915H96.59c.7,0,1.037-.282,1.208-1.361l2.554-16.022c.128-.8-.067-1.2-.679-1.2H95.117c-.411,0-.61.231-.717.858l-.169.986c-.088.515-.323.6-.542.086-.774-1.831-2.748-2.65-5.508-2.594-6.391.132-10.7,4.983-11.159,11.2a7.7,7.7,0,0,0,7.632,8.586,8.234,8.234,0,0,0,6.43-2.488Zm-3.467-2.462a4.159,4.159,0,0,1-4.267-4.884,5.949,5.949,0,0,1,5.72-4.884,4.159,4.159,0,0,1,4.267,4.884,5.948,5.948,0,0,1-5.72,4.884ZM108.46,38.692h-4.18c-.867,0-1.221.635-.943,1.442l5.211,15.275-5.138,7.266c-.428.606-.1,1.16.507,1.16h4.722a1.446,1.446,0,0,0,1.4-.69l16.039-23.009c.494-.708.261-1.45-.549-1.451l-4.465-.005c-.766,0-1.074.306-1.513.94l-6.691,9.708L109.892,39.6a1.287,1.287,0,0,0-1.429-.91Z" fill="#113984" fill-rule="evenodd"/>
        <path id="Path_47" data-name="Path 47" d="M142.776,29.366c4.224,0,8.119,2.29,7.588,8-.633,6.771-4.282,10.543-10.021,10.558h-5.007c-.722,0-1.069.587-1.258,1.795l-.966,6.162c-.146.931-.623,1.39-1.33,1.39H127.12c-.744,0-1-.475-.838-1.538l3.855-24.7c.189-1.214.654-1.666,1.478-1.666Zm-7.6,13.223h3.8c2.374-.089,3.954-1.734,4.113-4.7a2.869,2.869,0,0,0-3.11-3.134l-3.576.017-1.225,7.818Zm27.858,12.79c.428-.387.861-.589.8-.111l-.151,1.145c-.079.6.159.915.715.915h4.142c.7,0,1.038-.282,1.21-1.361l2.55-16.022c.128-.8-.066-1.2-.678-1.2h-4.554c-.411,0-.61.231-.717.858l-.169.986c-.088.515-.324.6-.543.086-.773-1.831-2.747-2.65-5.508-2.594-6.39.132-10.7,4.983-11.158,11.2a7.7,7.7,0,0,0,7.631,8.586,8.233,8.233,0,0,0,6.43-2.488Zm-3.465-2.462a4.163,4.163,0,0,1-4.268-4.884,5.948,5.948,0,0,1,5.72-4.884,4.159,4.159,0,0,1,4.267,4.884,5.948,5.948,0,0,1-5.715,4.884Zm19.108,4.44H173.9a.564.564,0,0,1-.594-.533.547.547,0,0,1,.007-.128l4.2-26.613a.826.826,0,0,1,.794-.661h4.779a.565.565,0,0,1,.594.533.608.608,0,0,1-.008.128l-4.2,26.613a.824.824,0,0,1-.793.662Z" fill="#009ee3" fill-rule="evenodd"/>
        <path id="Path_48" data-name="Path 48" d="M8.646,19.481H21.178c3.53,0,7.716.115,10.516,2.584a8.479,8.479,0,0,1,2.625,7.1C33.552,38.736,27.828,44.1,20.152,44.1H13.971c-1.052,0-1.75.7-2.046,2.586L10.2,57.653c-.112.712-.421,1.131-.984,1.182H1.5c-.855,0-1.16-.656-.937-2.076l5.559-35.2a2.22,2.22,0,0,1,2.524-2.078Z" fill="#113984" fill-rule="evenodd"/>
        <path id="Path_49" data-name="Path 49" d="M12.1,45.575l2.189-13.853a1.914,1.914,0,0,1,2.18-1.8h12.52a12.215,12.215,0,0,1,5.059.92C32.794,39.363,27.286,44.1,20.071,44.1h-6.18A1.819,1.819,0,0,0,12.1,45.575Z" fill="#172c70" fill-rule="evenodd"/>
      </g>
    </g>
  </g>
</svg>
