<svg xmlns="http://www.w3.org/2000/svg" width="272" height="104" viewBox="0 0 272 104">
  <g id="Group_148" data-name="Group 148" transform="translate(-1076 -6355)">
    <rect id="Rectangle_1152" data-name="Rectangle 1152" width="272" height="104" transform="translate(1076 6355)" fill="#fff" opacity="0"/>
    <g id="zendesk" transform="translate(1119.847 6365.742)" style="isolation: isolate">
      <path id="Path_50" data-name="Path 50" d="M128.6,44.823c-.491-3.189-2.4-5.537-6.213-5.537a6.329,6.329,0,0,0-6.648,5.537Zm-5.613,9.51a9.129,9.129,0,0,0,6.485-2.518l3.214,3.469a12.648,12.648,0,0,1-9.644,3.806c-7.847,0-12.916-5.2-12.916-12.253a12.011,12.011,0,0,1,12.2-12.252c7.794,0,12.208,5.928,11.827,14.154H115.739c.653,3.414,3.051,5.594,7.248,5.594" fill="#00363d"/>
      <path id="Path_51" data-name="Path 51" d="M1.153,54.078l14.177-14.4H1.485V35.159H21.9v4.612L7.721,54.172H22.088V58.69H1.153Z" fill="#00363d"/>
      <path id="Path_52" data-name="Path 52" d="M44.511,44.823c-.491-3.189-2.4-5.537-6.213-5.537a6.329,6.329,0,0,0-6.648,5.537ZM38.9,54.333a9.129,9.129,0,0,0,6.485-2.518L48.6,55.284a12.648,12.648,0,0,1-9.644,3.806c-7.847,0-12.916-5.2-12.916-12.253a12.011,12.011,0,0,1,12.2-12.252c7.794,0,12.208,5.928,11.827,14.154H31.65c.653,3.414,3.051,5.594,7.248,5.594" fill="#00363d"/>
      <path id="Path_53" data-name="Path 53" d="M100.622,46.805a7.452,7.452,0,1,0-2.11,5.417,7.47,7.47,0,0,0,2.11-5.417m-19.944.047c0-7.53,5.622-12.238,11.814-12.238a10.191,10.191,0,0,1,7.845,3.531V24.259h5.011v34.36h-5.011V55.371a10.07,10.07,0,0,1-7.894,3.718A11.86,11.86,0,0,1,80.678,46.852" fill="#00363d"/>
      <path id="Path_54" data-name="Path 54" d="M137.084,53.629l4.535-2.353a6.738,6.738,0,0,0,6.05,3.435c2.837,0,4.3-1.457,4.3-3.1,0-1.883-2.74-2.308-5.718-2.919-4.018-.849-8.174-2.165-8.174-7.011,0-3.72,3.541-7.155,9.121-7.109,4.392,0,7.655,1.742,9.5,4.565l-4.207,2.308a6.1,6.1,0,0,0-5.29-2.684c-2.7,0-4.065,1.318-4.065,2.825,0,1.7,2.174,2.163,5.577,2.918,3.874.846,8.268,2.116,8.268,7.013,0,3.246-2.833,7.624-9.546,7.577-4.914,0-8.364-1.976-10.349-5.46" fill="#00363d"/>
      <path id="Path_55" data-name="Path 55" d="M170.025,48.169,166.056,52.5v6.118h-5.009V24.261h5.009v22.5L176.69,35.086h6.1l-9.217,10.071,9.453,13.461h-5.671Z" fill="#00363d"/>
      <path id="Path_56" data-name="Path 56" d="M65.763,34.61c-5.954,0-10.94,3.858-10.94,10.261V58.617h5.1V45.507c0-3.858,2.221-6.169,6-6.169S71.6,41.649,71.6,45.507v13.11h5.1V44.871c0-6.4-4.986-10.261-10.94-10.261" fill="#00363d"/>
    </g>
  </g>
</svg>
