<svg xmlns="http://www.w3.org/2000/svg" width="25.357" height="20.614" viewBox="0 0 25.357 20.614">
  <path id="Path_41109" data-name="Path 41109" d="M26.294,5.193a10.418,10.418,0,0,1-2.987.819,5.215,5.215,0,0,0,2.287-2.879,10.386,10.386,0,0,1-3.3,1.262A5.2,5.2,0,0,0,13.426,9.14,14.774,14.774,0,0,1,2.7,3.7a5.211,5.211,0,0,0,1.61,6.946A5.19,5.19,0,0,1,1.957,10v.067a5.2,5.2,0,0,0,4.174,5.1,5.24,5.24,0,0,1-2.35.089,5.205,5.205,0,0,0,4.86,3.612A10.44,10.44,0,0,1,2.179,21.1a10.61,10.61,0,0,1-1.242-.073,14.714,14.714,0,0,0,7.974,2.337,14.7,14.7,0,0,0,14.8-14.8c0-.223-.006-.449-.016-.672A10.576,10.576,0,0,0,26.292,5.2l0,0Z" transform="translate(-0.937 -2.747)" fill="#4d5c65"/>
</svg>
