<svg xmlns="http://www.w3.org/2000/svg" width="24" height="23.32" viewBox="0 0 24 23.32">
  <path id="Path_41107" data-name="Path 41107" d="M12,0A11.834,11.834,0,0,0,0,11.66,11.834,11.834,0,0,0,12,23.32,11.834,11.834,0,0,0,24,11.66,11.834,11.834,0,0,0,12,0ZM1.48,12.541H4.827a17.936,17.936,0,0,0,.507,3.5H2.453a9.958,9.958,0,0,1-.973-3.5Zm11.427-7v-4a5.454,5.454,0,0,1,2.96,2.591,10.978,10.978,0,0,1,.72,1.4ZM17.2,7.294a16.2,16.2,0,0,1,.547,3.5h-4.84v-3.5H17.2ZM11.093,1.542v4H7.413a10.93,10.93,0,0,1,.72-1.4,5.453,5.453,0,0,1,2.96-2.6Zm0,5.752v3.5H6.267a16.2,16.2,0,0,1,.547-3.5ZM4.827,10.779H1.48a9.958,9.958,0,0,1,.973-3.5h2.88a17.82,17.82,0,0,0-.507,3.5Zm1.44,1.762h4.827v3.5H6.813a16.249,16.249,0,0,1-.547-3.5Zm4.84,5.182v4a5.454,5.454,0,0,1-2.96-2.591,10.929,10.929,0,0,1-.72-1.4Zm1.8,4V17.788h3.68a10.93,10.93,0,0,1-.72,1.4,5.454,5.454,0,0,1-2.96,2.591Zm0-5.752v-3.5h4.827a16.249,16.249,0,0,1-.547,3.5Zm6.28-3.5h3.347a9.958,9.958,0,0,1-.973,3.5H18.667a17.914,17.914,0,0,0,.507-3.433Zm0-1.749a17.823,17.823,0,0,0-.52-3.433h2.88a9.963,9.963,0,0,1,.973,3.5l-3.333-.065ZM20.52,5.545H18.133A11.464,11.464,0,0,0,16.28,2.28a10.617,10.617,0,0,1,4.187,3.265ZM7.72,2.28A11.464,11.464,0,0,0,5.867,5.545H3.533A10.617,10.617,0,0,1,7.72,2.28ZM3.52,17.827H5.867A11.464,11.464,0,0,0,7.72,21.091a10.612,10.612,0,0,1-4.187-3.3Zm12.747,3.265a11.464,11.464,0,0,0,1.853-3.265h2.347A10.624,10.624,0,0,1,16.28,21.04Z" fill="#4d5c65"/>
</svg>
