<svg width="18" height="24" viewBox="0 0 18 24" fill="none" xmlns="http://www.w3.org/2000/svg">
<path d="M9.24493 18.0207C8.43531 18.0207 7.96324 18.7914 7.96324 19.8212C7.96324 20.8593 8.45082 21.5905 9.25278 21.5905C10.063 21.5905 10.5267 20.8198 10.5267 19.79C10.5267 18.8382 10.0708 18.0207 9.24493 18.0207Z" fill="#529ADB"/>
<path d="M3.21314 18.0363C2.94564 18.0363 2.7724 18.0598 2.67039 18.0832V21.551C2.7724 21.5749 2.93784 21.5749 3.08708 21.5749C4.17196 21.5828 4.87971 20.9849 4.87971 19.7192C4.88799 18.6181 4.24303 18.0363 3.21314 18.0363Z" fill="#529ADB"/>
<path d="M17.7021 5.75129C17.7007 5.64122 17.6658 5.53251 17.5902 5.44658L12.9626 0.160974C12.9617 0.159492 12.9603 0.159013 12.9589 0.157662C12.9314 0.126856 12.8997 0.101453 12.8657 0.0790565C12.8555 0.0725206 12.8454 0.0666382 12.8349 0.0606687C12.805 0.0447211 12.7742 0.0314749 12.742 0.0218017C12.7333 0.0192745 12.7255 0.0157015 12.7167 0.0134357C12.6814 0.00498257 12.6455 1.52588e-05 12.6088 1.52588e-05H1.2361C0.71723 1.52588e-05 0.294922 0.422367 0.294922 0.941234V23.0588C0.294922 23.5779 0.71723 24.0001 1.2361 24.0001H16.7655C17.2848 24.0001 17.7067 23.5779 17.7067 23.0588V5.80401C17.7066 5.78632 17.7039 5.76898 17.7021 5.75129ZM5.2733 21.8263C4.71496 22.2904 3.86568 22.5106 2.82742 22.5106C2.20599 22.5106 1.76573 22.471 1.46712 22.432V17.2266C1.90738 17.1558 2.4815 17.1163 3.08716 17.1163C4.09348 17.1163 4.74615 17.2974 5.25722 17.6825C5.8079 18.0915 6.15391 18.744 6.15391 19.6797C6.15373 20.6942 5.78437 21.3938 5.2733 21.8263ZM9.18963 22.5423C7.61704 22.5423 6.697 21.3548 6.697 19.8449C6.697 18.2565 7.71138 17.0692 9.27604 17.0692C10.9037 17.0692 11.7926 18.2882 11.7926 19.7505C11.7926 21.4885 10.7388 22.5423 9.18963 22.5423ZM15.2921 21.5437C15.6538 21.5437 16.055 21.4646 16.2907 21.3706L16.4718 22.3063C16.2517 22.4168 15.7563 22.5344 15.1115 22.5344C13.2793 22.5344 12.3358 21.394 12.3358 19.8844C12.3358 18.0761 13.6253 17.0694 15.2291 17.0694C15.8505 17.0694 16.3224 17.1951 16.5348 17.3054L16.2907 18.2567C16.0474 18.1547 15.7089 18.06 15.2845 18.06C14.3332 18.06 13.5935 18.6342 13.5935 19.8137C13.5936 20.875 14.2227 21.5437 15.2921 21.5437ZM1.2361 15.9805V0.941234H12.1382V5.75669C12.1382 6.01643 12.3487 6.22728 12.6088 6.22728H16.7655L16.766 15.9805H1.2361Z" fill="#529ADB"/>
<path d="M7.80783 6.4967H11.2323C11.4042 6.4967 11.5439 6.35722 11.5439 6.18502C11.5439 6.01282 11.4042 5.87321 11.2323 5.87321H7.80783C7.63558 5.87321 7.49645 6.01282 7.49645 6.18502C7.49624 6.35722 7.63523 6.4967 7.80783 6.4967Z" fill="#529ADB"/>
<path d="M12.9073 8.36706H4.38792C4.21572 8.36706 4.0759 8.50654 4.0759 8.67874C4.0759 8.85107 4.21572 8.99033 4.38792 8.99033H12.9073C13.0797 8.99033 13.2194 8.85107 13.2194 8.67874C13.2194 8.50658 13.0799 8.36706 12.9073 8.36706Z" fill="#529ADB"/>
<path d="M5.27888 7.12122L5.5676 5.9475C5.64145 5.66257 5.68982 5.42192 5.73444 5.15534H5.74167C5.77108 5.42545 5.81553 5.66257 5.8784 5.9475L6.13792 7.12122H6.6269L7.29648 4.62593H6.83369L6.57461 5.75508C6.50799 6.05883 6.44842 6.34353 6.40424 6.61791H6.39653C6.35975 6.34758 6.30781 6.06989 6.24498 5.77369L5.99692 4.62619H5.51936L5.24947 5.75534C5.17858 6.06994 5.10781 6.36645 5.0676 6.62898H5.06071C5.02001 6.38105 4.96054 6.06244 4.89744 5.75891L4.66045 4.62619H4.1754L4.78638 7.12148L5.27888 7.12122Z" fill="#529ADB"/>
<path d="M12.9073 10.8431H4.38792C4.21572 10.8431 4.0759 10.9826 4.0759 11.1549C4.0759 11.3271 4.21572 11.4666 4.38792 11.4666H12.9073C13.0797 11.4666 13.2194 11.3271 13.2194 11.1549C13.2194 10.9826 13.0799 10.8431 12.9073 10.8431Z" fill="#529ADB"/>
<path d="M12.9073 13.3782H4.38792C4.21572 13.3782 4.0759 13.5179 4.0759 13.6902C4.0759 13.8623 4.21572 14.0018 4.38792 14.0018H12.9073C13.0797 14.0018 13.2194 13.8623 13.2194 13.6902C13.2194 13.5179 13.0799 13.3782 12.9073 13.3782Z" fill="#529ADB"/>
</svg>
