<svg xmlns="http://www.w3.org/2000/svg" width="48" height="48" viewBox="0 0 48 48">
  <g id="Group_283" data-name="Group 283" transform="translate(4143 3347)">
    <rect id="Rectangle_352" data-name="Rectangle 352" width="48" height="48" transform="translate(-4143 -3347)" fill="none" opacity="0"/>
    <g id="Group_282" data-name="Group 282" transform="translate(-4139.5 -3345.1)">
      <path id="Path_3013" data-name="Path 3013" d="M38.466,53.6H32.4a11.522,11.522,0,0,1-2.761,5.793H33.1a.6.6,0,0,1,.583.583v3.3a.6.6,0,0,1-.583.583H8.877a.6.6,0,0,1-.583-.583v-3.3a.6.6,0,0,1,.583-.583h3.46A11.522,11.522,0,0,1,9.576,53.6h-6.1a.963.963,0,0,0-.972.972V68.686a.963.963,0,0,0,.972.972H38.466a.963.963,0,0,0,.972-.972V54.572A.963.963,0,0,0,38.466,53.6Z" transform="translate(0 -29.642)" fill="#fff"/>
      <path id="Path_3014" data-name="Path 3014" d="M34.843,43.185A9.643,9.643,0,1,0,25.2,33.543,9.641,9.641,0,0,0,34.843,43.185Zm.739-8.787H34.143a2.871,2.871,0,0,1-2.877-2.877,2.9,2.9,0,0,1,2.761-2.877V26.933h1.633v1.711a2.874,2.874,0,0,1,2.761,2.877H36.787a1.253,1.253,0,0,0-1.244-1.244H34.1a1.244,1.244,0,0,0,0,2.488h1.439a2.871,2.871,0,0,1,2.877,2.877,2.9,2.9,0,0,1-2.761,2.877V40.23H34.026V38.52a2.874,2.874,0,0,1-2.761-2.877H32.9a1.253,1.253,0,0,0,1.244,1.244h1.439a1.253,1.253,0,0,0,1.244-1.244A1.279,1.279,0,0,0,35.581,34.4Z" transform="translate(-13.874 -11.49)" fill="#fff"/>
      <path id="Path_3015" data-name="Path 3015" d="M48.472,10.66a.963.963,0,0,0,.972-.972V6.072a.972.972,0,1,0-1.944,0V9.688A.963.963,0,0,0,48.472,10.66Z" transform="translate(-27.503 0)" fill="#fff"/>
      <path id="Path_3016" data-name="Path 3016" d="M36.572,13.86a.963.963,0,0,0,.972-.972V9.272a.972.972,0,0,0-1.944,0v3.616A.988.988,0,0,0,36.572,13.86Z" transform="translate(-20.23 -1.956)" fill="#fff"/>
      <path id="Path_3017" data-name="Path 3017" d="M60.372,13.86a.963.963,0,0,0,.972-.972V9.272a.972.972,0,1,0-1.944,0v3.616A.963.963,0,0,0,60.372,13.86Z" transform="translate(-34.776 -1.956)" fill="#fff"/>
    </g>
  </g>
</svg>
