<svg width="18" height="24" viewBox="0 0 18 24" fill="none" xmlns="http://www.w3.org/2000/svg">
<path d="M17.7011 5.75129C17.6997 5.64122 17.6643 5.53251 17.5887 5.44658L12.9616 0.160974C12.9603 0.159492 12.9589 0.159013 12.958 0.157662C12.9304 0.126856 12.8982 0.101453 12.8642 0.0790565C12.8541 0.0725206 12.844 0.0666382 12.8334 0.0606687C12.804 0.0447211 12.7732 0.0314749 12.7406 0.0218017C12.7319 0.0192745 12.7241 0.0157015 12.7154 0.0134357C12.6804 0.00498257 12.6441 1.52588e-05 12.6073 1.52588e-05H1.23512C0.716254 1.52588e-05 0.293945 0.422367 0.293945 0.941234V23.0588C0.293945 23.5779 0.716254 24.0001 1.23512 24.0001H16.7645C17.2834 24.0001 17.7057 23.5779 17.7057 23.0588V5.80401C17.7057 5.78632 17.7029 5.76898 17.7011 5.75129ZM4.98548 20.6236C4.98548 22.2495 4.20596 22.8171 2.95276 22.8171C2.65634 22.8171 2.26662 22.7663 2.01263 22.6815L2.15682 21.6397C2.33468 21.699 2.56318 21.7417 2.81734 21.7417C3.3596 21.7417 3.69821 21.4958 3.69821 20.6066V17.0156H4.98553L4.98548 20.6236ZM9.63584 20.1071C9.19515 20.522 8.5429 20.7082 7.78094 20.7082C7.61136 20.7082 7.4589 20.6999 7.34025 20.6829V22.7243H6.0613V17.0919C6.4596 17.0239 7.01842 16.9734 7.80608 16.9734C8.60216 16.9734 9.16983 17.1257 9.551 17.4306C9.91519 17.7187 10.1606 18.1925 10.1606 18.7518C10.1606 19.3107 9.97453 19.7851 9.63584 20.1071ZM15.7512 22.4614C15.3532 22.5969 14.5993 22.7833 13.8452 22.7833C12.8039 22.7833 12.0497 22.5207 11.5251 22.0128C10.9998 21.5214 10.7117 20.7762 10.7204 19.9375C10.7286 18.0404 12.109 16.9563 13.9807 16.9563C14.7181 16.9563 15.2854 17.1002 15.5646 17.236L15.2937 18.2693C14.9803 18.1338 14.5908 18.0239 13.9639 18.0239C12.8886 18.0239 12.0756 18.6337 12.0756 19.8704C12.0756 21.0476 12.8123 21.7422 13.8711 21.7422C14.1676 21.7422 14.4046 21.7079 14.5062 21.6571V20.4632H13.6252V19.4554H15.7511L15.7512 22.4614ZM1.23512 15.9805V0.941234H12.1367V5.75669C12.1367 6.01643 12.3477 6.22728 12.6073 6.22728H16.7645V15.9805H1.23512Z" fill="#3B9982"/>
<path d="M7.87406 17.9472C7.61175 17.9472 7.43393 17.9724 7.34038 17.9982V19.6834C7.45079 19.7087 7.58639 19.7174 7.77249 19.7174C8.45859 19.7174 8.88234 19.37 8.88234 18.7859C8.88234 18.2605 8.51789 17.9472 7.87406 17.9472Z" fill="#3B9982"/>
<path d="M7.72064 10.6077C5.84117 8.72771 4.01855 16 4.01855 16H10.2826C10.2826 16 9.60103 12.489 7.72064 10.6077Z" fill="#26A769"/>
<path d="M12.28 12.548C10.9477 12.8888 10.2826 16 10.2826 16L14.7749 16C14.1651 14.4412 13.4178 12.2569 12.28 12.548Z" fill="#26A769"/>
<path d="M4.01988 8.93196C4.66358 8.93196 5.18532 8.41061 5.18532 7.76652C5.18532 7.1226 4.66362 6.60168 4.01988 6.60168C3.37513 6.60168 2.85352 7.1226 2.85352 7.76652C2.85352 8.41061 3.37513 8.93196 4.01988 8.93196Z" fill="#FFC700"/>
<path d="M11.0867 9.6812C11.322 9.6812 11.5421 9.65693 11.7379 9.61741C11.9658 9.71532 12.2429 9.77392 12.5444 9.77392C13.3144 9.77392 13.9394 9.39697 13.9394 8.93244C13.9394 8.46748 13.3147 8.09079 12.5444 8.09079C12.2549 8.09079 11.987 8.14373 11.7636 8.23462C11.6726 8.14661 11.5495 8.09079 11.4132 8.09079H11.2112C10.9525 8.09079 10.7475 8.28678 10.7182 8.53746C10.0927 8.60238 9.62988 8.82804 9.62988 9.09837C9.62967 9.4205 10.2818 9.6812 11.0867 9.6812Z" fill="#91CAFF"/>
</svg>
