<svg width="18" height="24" viewBox="0 0 18 24" fill="none" xmlns="http://www.w3.org/2000/svg">
<path d="M8.64876 18.0696C8.36061 18.0696 8.17451 18.0951 8.06432 18.1204V21.8554C8.17473 21.881 8.35259 21.881 8.51329 21.881C9.68183 21.8892 10.4442 21.2458 10.4442 19.8821C10.4525 18.6962 9.75817 18.0696 8.64876 18.0696Z" fill="#E20000"/>
<path d="M3.65904 18.0528C3.39665 18.0528 3.21878 18.0781 3.12536 18.1034V19.789C3.23565 19.8143 3.37124 19.823 3.55686 19.823C4.24344 19.823 4.66671 19.4756 4.66671 18.8912C4.66675 18.3662 4.30235 18.0528 3.65904 18.0528Z" fill="#E20000"/>
<path d="M17.7011 5.75127C17.6997 5.64121 17.6648 5.5325 17.5892 5.44657L12.9616 0.160958L12.958 0.157647C12.9304 0.126841 12.8987 0.101438 12.8647 0.0790412C12.8546 0.0725053 12.844 0.066623 12.8334 0.0606535C12.804 0.0447058 12.7732 0.0314596 12.7406 0.0217865C12.7323 0.0192592 12.724 0.0156862 12.7153 0.0134205C12.6804 0.00496731 12.6441 0 12.6078 0H1.23512C0.716254 0 0.293945 0.422352 0.293945 0.941218V23.0588C0.293945 23.5779 0.716254 24 1.23512 24H16.7645C17.2834 24 17.7057 23.5779 17.7057 23.0588V5.804C17.7057 5.78631 17.7029 5.76897 17.7011 5.75127ZM5.42078 20.2123C4.98052 20.6272 4.32832 20.8139 3.56592 20.8139C3.39677 20.8139 3.24387 20.8051 3.12575 20.7886V22.8295H1.84688V17.1971C2.24475 17.1296 2.80405 17.0786 3.59185 17.0786C4.38779 17.0786 4.95533 17.2311 5.33633 17.5358C5.70073 17.8239 5.9457 18.2982 5.9457 18.857C5.9457 19.4163 5.75982 19.8906 5.42078 20.2123ZM10.867 22.1521C10.2663 22.6516 9.35162 22.8888 8.23397 22.8888C7.56474 22.8888 7.09071 22.8465 6.76831 22.8042V17.1971C7.24269 17.1213 7.86125 17.0786 8.51323 17.0786C9.59676 17.0786 10.2999 17.2734 10.8507 17.6884C11.4437 18.1289 11.8164 18.8318 11.8164 19.8396C11.816 20.9324 11.418 21.6861 10.867 22.1521ZM16.1533 18.1797H13.9593V19.4839H16.0089V20.5345H13.9593V22.8295H12.6639V17.1213H16.1533V18.1797ZM1.23512 15.9804V0.941218H12.1372V5.75668C12.1372 6.01642 12.3477 6.22726 12.6078 6.22726H16.7645L16.765 15.9804H1.23512Z" fill="#E20000"/>
<path d="M13.8276 10.1148C13.8 10.1122 13.1369 10.0517 12.119 10.0517C11.8001 10.0517 11.4789 10.0579 11.1617 10.0699C9.15159 8.56138 7.50515 7.05171 6.62371 6.20565C6.63979 6.11249 6.65086 6.03886 6.656 5.9823C6.77225 4.75507 6.64301 3.92657 6.27317 3.51978C6.03099 3.25394 5.6753 3.16548 5.30441 3.26679C5.07408 3.32714 4.64772 3.55058 4.51121 4.00544C4.36049 4.5081 4.60276 5.11816 5.23922 5.82561C5.24933 5.83633 5.46532 6.06265 5.85779 6.44613C5.60271 7.66238 4.935 10.287 4.61103 11.5473C3.85012 11.9539 3.21614 12.4437 2.72533 13.0055L2.69317 13.0423L2.67239 13.0864C2.62184 13.1926 2.38023 13.7438 2.56163 14.1866C2.64446 14.3879 2.79967 14.535 3.01051 14.6122L3.06703 14.6274C3.06703 14.6274 3.11801 14.6384 3.20764 14.6384C3.60023 14.6384 4.56929 14.4321 5.08907 12.5166L5.215 12.0313C7.02933 11.1494 9.29726 10.8649 10.9411 10.7857C11.7867 11.4127 12.6281 11.9888 13.4434 12.4989L13.4701 12.5143C13.5096 12.5345 13.8671 12.711 14.2858 12.7114C14.8841 12.7114 15.3212 12.3442 15.4839 11.7043L15.4921 11.6606C15.5376 11.2949 15.4457 10.9653 15.2265 10.7076C14.7647 10.1647 13.9049 10.1174 13.8276 10.1148ZM3.22228 13.9322C3.21862 13.9278 3.21688 13.9237 3.21505 13.9191C3.176 13.8251 3.22285 13.5971 3.29178 13.4301C3.58772 13.0992 3.94297 12.7955 4.35291 12.522C3.95369 13.8143 3.37313 13.926 3.22228 13.9322ZM5.757 5.34618C5.14393 4.66374 5.15313 4.3254 5.18611 4.2115C5.24023 4.02113 5.4845 3.94919 5.48659 3.94853C5.60964 3.91507 5.68432 3.92165 5.75081 3.99463C5.90118 4.15982 6.03033 4.65834 5.97931 5.57276C5.83456 5.42731 5.757 5.34618 5.757 5.34618ZM5.44023 11.1576L5.45082 11.1172L5.44942 11.1177C5.75639 9.91536 6.19909 8.15489 6.45365 7.02404L6.46284 7.0328L6.46375 7.02739C7.28728 7.80291 8.55002 8.93724 10.062 10.117L10.045 10.1177L10.07 10.1366C8.64567 10.2569 6.94449 10.5377 5.44023 11.1576ZM14.7941 11.552C14.6857 11.9506 14.477 12.005 14.2858 12.005C14.0639 12.005 13.8502 11.9127 13.8015 11.8903C13.2463 11.5424 12.6783 11.1632 12.1052 10.7575C12.1098 10.7575 12.1139 10.7575 12.119 10.7575C13.1015 10.7575 13.7559 10.8172 13.7816 10.819C13.9457 10.8251 14.465 10.9018 14.6888 11.1649C14.7766 11.268 14.8102 11.3913 14.7941 11.552Z" fill="#E20000"/>
</svg>
