<svg xmlns="http://www.w3.org/2000/svg" width="18" height="24" viewBox="0 0 431.4 500.014">
  <g id="Group_26758" data-name="Group 26758" transform="translate(-1597 -4669.336)">
    <path id="Path_41230" data-name="Path 41230" d="M0,0H257.378L361.2,101.432V468H0Z" transform="translate(1650.8 4686)" fill="#3980fb"/>
    <g id="Rectangle_10183" data-name="Rectangle 10183" transform="translate(1635 4967.601)" fill="#fff" stroke="#707070" stroke-width="1">
      <rect width="218" height="97" stroke="none"/>
      <rect x="0.5" y="0.5" width="217" height="96" fill="none"/>
    </g>
    <path id="XMLID_413_" d="M365.6,285.9H40.3V419.8H316.6ZM156.5,327.4H134.9V388H123.2V327.4H101.9V318h54.6ZM207.6,388l-15.2-26.3L177.2,388H163.4l22-35.3L163.8,318h13.8l14.6,25.9L207,318h13.8l-21.5,34.7L221.7,388Zm75.1-60.6H261V388H249.3V327.4H228V318h54.6v9.4Z" transform="translate(1556.7 4663.35)" fill="#1f53b1"/>
    <path id="XMLID_412_" d="M352.9,6H107.4A13.359,13.359,0,0,0,94.1,19.3V276.1h26.6V32.6H352.9v92.2h92.2V479.4H120.7V429.6H94.1v63.1A13.359,13.359,0,0,0,107.4,506h351a13.359,13.359,0,0,0,13.3-13.3V124.8Z" transform="translate(1556.7 4663.35)" fill="#3980fb"/>
    <rect id="XMLID_411_" width="253.4" height="19.6" transform="translate(1712.9 4822.75)" fill="#fff"/>
    <rect id="XMLID_410_" width="213.3" height="19.6" transform="translate(1712.9 4860.85)" fill="#fff"/>
    <rect id="XMLID_410_2" data-name="XMLID_410_" width="159.3" height="19.6" transform="translate(1712.9 4898.95)" fill="#fff"/>
    <path id="Path_41229" data-name="Path 41229" d="M-.425-.264,118.364,118.547H-.542Z" transform="translate(1910.036 4669.601)" fill="#1f53b1"/>
  </g>
</svg>
