<svg width="18" height="24" viewBox="0 0 18 24" fill="none" xmlns="http://www.w3.org/2000/svg">
<path d="M17.7021 5.75149C17.7007 5.64143 17.666 5.53271 17.5904 5.44683L12.9627 0.160958C12.9617 0.159477 12.9603 0.158998 12.9589 0.157647C12.9314 0.126841 12.8997 0.101438 12.8657 0.0790412C12.8555 0.0725053 12.8454 0.0665358 12.8349 0.0606535C12.805 0.0447058 12.7742 0.0314596 12.742 0.0217865C12.7333 0.0192592 12.7255 0.0156862 12.7168 0.0134205C12.6814 0.00518518 12.6456 0 12.6088 0H1.2361C0.717274 0 0.294922 0.422352 0.294922 0.941218V23.0588C0.294922 23.5779 0.71723 24 1.2361 24H16.7655C17.2848 24 17.7067 23.5779 17.7067 23.0588V5.80422C17.7067 5.78631 17.7039 5.76896 17.7021 5.75149ZM5.76733 22.7983L5.23883 21.7413C5.02241 21.3341 4.88363 21.0308 4.7191 20.693H4.70175C4.58032 21.031 4.43326 21.3341 4.25138 21.7413L3.76594 22.7983H2.25858L3.94803 19.8437L2.31936 16.9586H3.83535L4.34637 18.0243C4.51962 18.3796 4.64968 18.6654 4.78859 18.9945H4.8055C4.94428 18.6222 5.05679 18.3621 5.20384 18.0243L5.69796 16.9586H7.20532L5.5594 19.8092L7.29229 22.7983H5.76733ZM11.6492 22.7983H8.00175V16.9591H9.32758V21.6893H11.6492V22.7983ZM13.8579 22.8846C13.191 22.8846 12.5325 22.7113 12.2034 22.5294L12.4721 21.438C12.8275 21.6195 13.3733 21.8014 13.9364 21.8014C14.5428 21.8014 14.8631 21.5505 14.8631 21.1691C14.8631 20.8051 14.5858 20.5972 13.8843 20.346C12.9141 20.0082 12.2811 19.471 12.2811 18.6222C12.2811 17.6259 13.1129 16.8632 14.4909 16.8632C15.149 16.8632 15.634 17.0021 15.9808 17.1578L15.6862 18.2233C15.4523 18.1107 15.0361 17.9462 14.4649 17.9462C13.8932 17.9462 13.6161 18.2058 13.6161 18.5094C13.6161 18.8819 13.9452 19.0464 14.6989 19.3323C15.7297 19.7137 16.2149 20.2504 16.2149 21.0735C16.2145 22.0533 15.461 22.8846 13.8579 22.8846ZM1.2361 15.9807V0.941393H12.1382V5.7569C12.1382 6.01668 12.3487 6.22748 12.6088 6.22748H16.7655L16.766 15.9807H1.2361Z" fill="#0B8B00"/>
<path d="M2.58916 6.02941V13.3235H14.5303V6.02941H2.58916ZM10.3932 9.55881H6.72663V8.0294H10.3932V9.55881ZM2.82445 6.2647H6.49103V7.79411H2.82445V6.2647ZM2.82445 8.0294H6.49103V9.55881H2.82445V8.0294ZM2.82445 9.7941H6.49103V11.3235H2.82445V9.7941ZM2.82445 13.0882V11.5588H6.49103V13.0882H2.82445ZM6.72658 13.0882V11.5588H10.3932V13.0882H6.72658ZM14.295 13.0882H10.6284V11.5588H14.295V13.0882ZM14.295 9.55881H10.6284V8.0294H14.295V9.55881ZM10.6284 7.79411V6.2647H14.295V7.79411H10.6284Z" fill="#0B8B00"/>
</svg>
