<svg xmlns="http://www.w3.org/2000/svg" width="31" height="31" viewBox="0 0 31 31">
  <g id="Group_84" data-name="Group 84" transform="translate(0 -0.001)">
    <g id="Ellipse_31" data-name="Ellipse 31" transform="translate(0 0.001)" fill="#1076fb" stroke="#fff" stroke-width="1">
      <circle cx="15.5" cy="15.5" r="15.5" stroke="none"/>
      <circle cx="15.5" cy="15.5" r="15" fill="none"/>
    </g>
    <path id="Icon_awesome-info" data-name="Icon awesome-info" d="M.454,9.628H.908V6.349H.454A.454.454,0,0,1,0,5.9V4.811a.454.454,0,0,1,.454-.454H3a.454.454,0,0,1,.454.454V9.628H3.9a.454.454,0,0,1,.454.454v1.084a.454.454,0,0,1-.454.454H.454A.454.454,0,0,1,0,11.166V10.082A.454.454,0,0,1,.454,9.628ZM2.179,0A1.634,1.634,0,1,0,3.813,1.634,1.634,1.634,0,0,0,2.179,0Z" transform="translate(12.533 9.352)" fill="#fff"/>
  </g>
</svg>
