<svg xmlns="http://www.w3.org/2000/svg" width="30.903" height="30.903" viewBox="0 0 30.903 30.903">
  <g id="Group_86" data-name="Group 86" transform="translate(0.5 0.5)">
    <g id="Group_146" data-name="Group 146">
      <g id="Group_83" data-name="Group 83">
        <path id="Icon_ionic-ios-add-circle" data-name="Icon ionic-ios-add-circle" d="M18.326,3.375A14.952,14.952,0,1,0,33.278,18.327,14.949,14.949,0,0,0,18.326,3.375Zm6.505,16.1H19.477v5.355a1.15,1.15,0,0,1-2.3,0V19.477H11.821a1.15,1.15,0,0,1,0-2.3h5.355V11.821a1.15,1.15,0,1,1,2.3,0v5.355h5.355a1.15,1.15,0,0,1,0,2.3Z" transform="translate(-3.375 -3.375)" fill="#f33" stroke="#fff" stroke-width="1"/>
        <ellipse id="Ellipse_32" data-name="Ellipse 32" cx="13" cy="12.5" rx="13" ry="12.5" transform="translate(1.087 2.849)" fill="#f33"/>
      </g>
      <rect id="Rectangle_1132" data-name="Rectangle 1132" width="15.335" height="3.578" rx="1.789" transform="translate(7.156 13.291)" fill="#fff"/>
    </g>
  </g>
</svg>
