<svg xmlns="http://www.w3.org/2000/svg" width="24" height="24" viewBox="0 0 24 24">
  <g id="Group_7608" data-name="Group 7608" transform="translate(0.429 0.282)">
    <circle id="Ellipse_479" data-name="Ellipse 479" cx="12" cy="12" r="12" transform="translate(-0.429 -0.282)" fill="#03a9f4"/>
    <path id="twitter_1_" data-name="twitter (1)" d="M12.684,49.214a5.422,5.422,0,0,1-1.5.411,2.586,2.586,0,0,0,1.144-1.438,5.2,5.2,0,0,1-1.649.629,2.6,2.6,0,0,0-4.5,1.779,2.678,2.678,0,0,0,.06.592,7.36,7.36,0,0,1-5.36-2.72,2.6,2.6,0,0,0,.8,3.476,2.568,2.568,0,0,1-1.174-.32v.028a2.612,2.612,0,0,0,2.083,2.555,2.6,2.6,0,0,1-.682.086,2.3,2.3,0,0,1-.492-.044,2.625,2.625,0,0,0,2.43,1.811A5.225,5.225,0,0,1,.622,57.169,4.872,4.872,0,0,1,0,57.133,7.321,7.321,0,0,0,3.989,58.3a7.35,7.35,0,0,0,7.4-7.4c0-.115,0-.226-.01-.336a5.188,5.188,0,0,0,1.3-1.35Z" transform="translate(5.526 -41.082)" fill="#fff"/>
  </g>
</svg>
