<svg xmlns="http://www.w3.org/2000/svg" width="38" height="38" viewBox="0 0 38 38">
  <g id="Group_149" data-name="Group 149" transform="translate(-6372 -15772)">
    <circle id="Ellipse_34" data-name="Ellipse 34" cx="19" cy="19" r="19" transform="translate(6372 15772)" fill="#f1f1f1"/>
    <path id="icon-user" d="M10.809,19.068,7.77,20.725c-.178.1-.339.217-.488,3.037a47.939,47.939,0,0,1,6.557-.3c8.245,3.843,6.674,0,6.519-2.361a2.7,2.7,0,0,0-.536-.359L16.569,19.12a1.241,1.241,0,0,1-.686-1.11V16.734a4.914,4.914,0,0,0,.308-.4A7.487,7.487,0,0,0,17.2,14.3a1.022,1.022,0,0,0,.725-.972V11.965a1.017,1.017,0,0,0-.34-.755V9.24s.4-3.066-3.747-3.066S10.093,9.24,10.093,9.24v1.97a1.016,1.016,0,0,0-.34.755v1.363a1.022,1.022,0,0,0,.471.857,6.763,6.763,0,0,0,1.232,2.549v1.245A1.242,1.242,0,0,1,10.809,19.068Z" transform="translate(6377.07 15775.363)" fill="#00cafd"/>
  </g>
</svg>
