<svg xmlns="http://www.w3.org/2000/svg" width="30" height="30" viewBox="0 0 30 30">
  <g id="Group_124" data-name="Group 124" transform="translate(-6329 -15704)">
    <circle id="Ellipse_33" data-name="Ellipse 33" cx="15" cy="15" r="15" transform="translate(6329 15704)" fill="#1076fb"/>
    <path id="Icon_material-group" data-name="Icon material-group" d="M10.528,11.111A1.806,1.806,0,1,0,8.723,9.306,1.8,1.8,0,0,0,10.528,11.111Zm-4.815,0A1.806,1.806,0,1,0,3.908,9.306,1.8,1.8,0,0,0,5.713,11.111Zm0,1.2c-1.4,0-4.213.7-4.213,2.107v1.5H9.927v-1.5C9.927,13.019,7.116,12.315,5.713,12.315Zm4.815,0c-.175,0-.373.012-.584.03a2.54,2.54,0,0,1,1.186,2.077v1.5h3.611v-1.5C14.742,13.019,11.931,12.315,10.528,12.315Z" transform="translate(6335.959 15707.286)" fill="#fff"/>
  </g>
</svg>
