
<svg xmlns="http://www.w3.org/2000/svg" width="20.256" height="20.256" viewBox="0 0 20.256 20.256">
    <g id="Group_7679" data-name="Group 7679" transform="translate(-3 -3)">
    <path id="Path_5911" data-name="Path 5911" d="M19.361,4.558H17.8V3H16.245V4.558H10.012V3H8.454V4.558H6.9A3.9,3.9,0,0,0,3,8.454V19.361a3.9,3.9,0,0,0,3.9,3.9H19.361a3.9,3.9,0,0,0,3.9-3.9V8.454A3.9,3.9,0,0,0,19.361,4.558ZM6.9,6.116H19.361A2.337,2.337,0,0,1,21.7,8.454v.779H4.558V8.454A2.337,2.337,0,0,1,6.9,6.116ZM19.361,21.7H6.9a2.337,2.337,0,0,1-2.337-2.337v-8.57H21.7v8.57A2.337,2.337,0,0,1,19.361,21.7Z" transform="translate(0)" fill="#ff008a"/>
    <rect id="Rectangle_2743" data-name="Rectangle 2743" width="1.5" height="1.5" transform="translate(8.628 13.128)" fill="#ff008a"/>
    <rect id="Rectangle_2744" data-name="Rectangle 2744" width="1.5" height="1.5" transform="translate(12.628 13.128)" fill="#ff008a"/>
    <rect id="Rectangle_2745" data-name="Rectangle 2745" width="1.5" height="1.5" transform="translate(16.628 13.128)" fill="#ff008a"/>
    <rect id="Rectangle_2747" data-name="Rectangle 2747" width="1.5" height="1.5" transform="translate(8.628 17.128)" fill="#ff008a"/>
    <rect id="Rectangle_2748" data-name="Rectangle 2748" width="1.5" height="1.5" transform="translate(12.628 17.128)" fill="#ff008a"/>
    <rect id="Rectangle_2749" data-name="Rectangle 2749" width="1.5" height="1.5" transform="translate(16.628 17.128)" fill="#ff008a"/>
    </g>
</svg>