<svg xmlns="http://www.w3.org/2000/svg" width="24" height="24" viewBox="0 0 24 24">
  <g id="Group_7611" data-name="Group 7611" transform="translate(0.135 0.282)">
    <circle id="Ellipse_477" data-name="Ellipse 477" cx="12" cy="12" r="12" transform="translate(-0.135 -0.282)" fill="#25d366"/>
    <g id="Group_7604" data-name="Group 7604" transform="translate(5.408 5.397)">
      <path id="Subtraction_8" data-name="Subtraction 8" d="M0,12.412H0L1.091,9.168a6.038,6.038,0,0,1,.165-6.5A6.063,6.063,0,0,1,3.916.475a6.039,6.039,0,0,1,5.734.557,6.063,6.063,0,0,1,2.191,2.66,6.039,6.039,0,0,1-.557,5.734,6.063,6.063,0,0,1-2.66,2.191,6.044,6.044,0,0,1-5.276-.277L0,12.412Zm3.5-2.165A5.039,5.039,0,1,0,2.195,9l-.629,1.869L3.5,10.247Z" fill="#fff" stroke="rgba(0,0,0,0)" stroke-miterlimit="10" stroke-width="1"/>
      <path id="Path_6818" data-name="Path 6818" d="M1552.459,677.775c-.117-.314-.247-.267-.338-.271s-.192-.02-.3-.024a.567.567,0,0,0-.419.178,1.731,1.731,0,0,0-.588,1.267,3,3,0,0,0,.57,1.619,6.334,6.334,0,0,0,2.549,2.429c1.546.677,1.554.47,1.838.455a1.561,1.561,0,0,0,1.069-.695,1.291,1.291,0,0,0,.118-.73c-.036-.066-.138-.108-.289-.191s-.9-.485-1.036-.542-.241-.086-.35.064-.418.487-.511.587-.184.109-.336.026a4.217,4.217,0,0,1-1.212-.812,4.665,4.665,0,0,1-.818-1.1c-.084-.158,0-.238.08-.312s.161-.175.242-.262a1.059,1.059,0,0,0,.164-.251.284.284,0,0,0,0-.271C1552.856,678.86,1552.576,678.089,1552.459,677.775Z" transform="translate(-1547.569 -674.393)" fill="#fff" fill-rule="evenodd"/>
    </g>
  </g>
</svg>
