<svg xmlns="http://www.w3.org/2000/svg" width="24" height="24" viewBox="0 0 24 24">
  <g id="Group_26458" data-name="Group 26458" transform="translate(7414 -2723)">
    <g id="Group_26456" data-name="Group 26456">
      <rect id="Rectangle_10128" data-name="Rectangle 10128" width="24" height="24" transform="translate(-7414 2723)" fill="none"/>
      <path id="Path_41128" data-name="Path 41128" d="M166.541,133.184a2.9,2.9,0,0,0-1.827.647l-5.022-3.633a3.894,3.894,0,0,0,0-1.4l5.022-3.633a2.907,2.907,0,1,0-1.081-2.261,2.861,2.861,0,0,0,.114.807l-4.769,3.454a3.878,3.878,0,1,0,0,4.663l4.769,3.454a2.874,2.874,0,0,0-.114.807,2.908,2.908,0,1,0,2.908-2.908Zm0-11.536a1.26,1.26,0,1,1-1.26,1.26A1.261,1.261,0,0,1,166.541,121.648Zm-10.663,9.985a2.133,2.133,0,1,1,2.133-2.133A2.136,2.136,0,0,1,155.878,131.633Zm10.663,5.719a1.26,1.26,0,1,1,1.26-1.26A1.261,1.261,0,0,1,166.541,137.352Z" transform="translate(-7562.725 2605.5)" fill="#1a2d39"/>
    </g>
  </g>
</svg>
