<svg xmlns="http://www.w3.org/2000/svg" width="23" height="24" viewBox="0 0 23 24">
  <g id="Group_7609" data-name="Group 7609" transform="translate(-0.424 0.282)">
    <ellipse id="Ellipse_478" data-name="Ellipse 478" cx="11.5" cy="12" rx="11.5" ry="12" transform="translate(0.424 -0.282)" fill="#1877f2"/>
    <path id="Path_6740" data-name="Path 6740" d="M13.978,6.989a6.989,6.989,0,1,0-8.081,6.9V9.009H4.122V6.989H5.9V5.449A2.466,2.466,0,0,1,8.537,2.73a10.748,10.748,0,0,1,1.565.137v1.72H9.22A1.01,1.01,0,0,0,8.081,5.678V6.989H10.02l-.31,2.02H8.081v4.884A6.991,6.991,0,0,0,13.978,6.989Z" transform="translate(4.675 4.691)" fill="#fff"/>
  </g>
</svg>
