<svg xmlns="http://www.w3.org/2000/svg" width="63" height="63" viewBox="0 0 63 63">
  <g id="Group_26457" data-name="Group 26457" transform="translate(-321.631 -8281.631)">
    <circle id="Ellipse_1278" data-name="Ellipse 1278" cx="31.5" cy="31.5" r="31.5" transform="translate(321.631 8281.631)" fill="#ffcd00"/>
    <path id="Path_41114" data-name="Path 41114" d="M16.864,2A4.528,4.528,0,1,0,21.392,6.53,4.528,4.528,0,0,0,16.864,2Zm10.2,2.262a3.4,3.4,0,1,0,3.4,3.4,3.4,3.4,0,0,0-3.4-3.4Zm-20.4,0a3.4,3.4,0,1,0,3.4,3.4A3.4,3.4,0,0,0,6.666,4.264Zm3.4,11.316a2.266,2.266,0,0,1,2.266-2.25H21.4A2.266,2.266,0,0,1,23.663,15.6v6.8a6.8,6.8,0,0,1-13.6,0ZM7.8,15.6a4.488,4.488,0,0,1,.607-2.266H3.266A2.266,2.266,0,0,0,1,15.6v5.666a5.666,5.666,0,0,0,7.787,5.256A9.027,9.027,0,0,1,7.8,22.392Zm18.131,0v6.8a9.032,9.032,0,0,1-.988,4.122,5.666,5.666,0,0,0,7.787-5.256V15.6a2.266,2.266,0,0,0-2.266-2.266h-5.14A4.511,4.511,0,0,1,25.93,15.6Z" transform="translate(335.908 8297.538)" fill="#151515"/>
  </g>
</svg>
