<svg xmlns="http://www.w3.org/2000/svg" width="15.667" height="15.667" viewBox="0 0 15.667 15.667">
  <path id="Icon_awesome-linkedin-in" data-name="Icon awesome-linkedin-in" d="M3.507,15.667H.259V5.207H3.507ZM1.881,3.781a1.89,1.89,0,1,1,1.881-1.9A1.9,1.9,0,0,1,1.881,3.781ZM15.664,15.667H12.422V10.575c0-1.214-.024-2.77-1.689-2.77-1.689,0-1.948,1.318-1.948,2.682v5.179H5.542V5.207H8.657V6.634H8.7a3.413,3.413,0,0,1,3.073-1.689c3.287,0,3.892,2.165,3.892,4.976v5.746Z" transform="translate(0 0)"/>
</svg>
