<svg xmlns="http://www.w3.org/2000/svg" width="16.503" height="13.429" viewBox="0 0 16.503 13.429">
  <path id="Icon_ionic-logo-twitter" data-name="Icon ionic-logo-twitter" d="M17.445,4.591a6.845,6.845,0,0,1-1.944.535,3.4,3.4,0,0,0,1.49-1.874,6.728,6.728,0,0,1-2.151.822A3.385,3.385,0,0,0,8.982,6.389a3.315,3.315,0,0,0,.087.773,9.6,9.6,0,0,1-6.98-3.543A3.393,3.393,0,0,0,3.142,8.144,3.307,3.307,0,0,1,1.6,7.721v.042A3.389,3.389,0,0,0,4.32,11.085a3.408,3.408,0,0,1-.892.119,3.194,3.194,0,0,1-.636-.063,3.391,3.391,0,0,0,3.165,2.354A6.788,6.788,0,0,1,1.75,14.946,6.863,6.863,0,0,1,.942,14.9a9.464,9.464,0,0,0,5.183,1.532,9.576,9.576,0,0,0,9.642-9.645c0-.147,0-.294-.01-.437A6.892,6.892,0,0,0,17.445,4.591Z" transform="translate(-0.942 -3)"/>
</svg>
